<?xml version="1.0" standalone="no"?>
<!DOCTYPE svg PUBLIC "-//W3C//DTD SVG 20010904//EN"
 "http://www.w3.org/TR/2001/REC-SVG-20010904/DTD/svg10.dtd">
<svg version="1.0" xmlns="http://www.w3.org/2000/svg"
 width="158.000000pt" height="158.000000pt" viewBox="0 0 158.000000 158.000000"
 preserveAspectRatio="xMidYMid meet">
<metadata>
Created by potrace 1.14, written by Peter Selinger 2001-2017
</metadata>
<g transform="translate(0.000000,158.000000) scale(0.100000,-0.100000)"
fill="#000000" stroke="none">
<path d="M497 1129 c-20 -5 -56 -18 -79 -30 -52 -26 -141 -117 -134 -135 3 -8
2 -14 -3 -14 -12 0 -39 -69 -46 -115 -7 -48 4 -137 16 -130 12 8 39 -49 37
-77 -5 -61 129 -169 213 -172 16 -1 29 -4 29 -8 0 -14 105 -9 158 7 28 9 79
34 113 58 51 34 68 54 96 107 33 65 57 170 35 156 -7 -4 -12 6 -15 26 -2 18
-3 8 0 -23 3 -45 -2 -69 -22 -115 -39 -89 -51 -108 -77 -121 -134 -66 -187
-86 -223 -85 -86 3 -104 6 -99 14 3 4 -3 8 -12 8 -9 0 -33 12 -53 27 -29 21
-32 22 -17 5 11 -12 16 -22 11 -22 -14 0 -85 62 -80 70 2 4 -4 15 -15 25 -11
10 -25 37 -31 59 -6 22 -20 53 -31 68 -30 43 -33 88 -9 136 12 23 21 49 21 58
0 9 16 32 35 51 19 19 40 47 47 61 9 18 40 40 98 69 47 23 91 43 98 43 8 0 27
-9 43 -21 17 -12 49 -23 72 -25 l42 -3 -44 9 c-25 5 -52 17 -60 26 -15 15 -12
16 34 11 32 -4 43 -3 30 3 -26 11 -129 11 -178 -1z m2 -13 c-9 -9 -99 -45 -99
-40 0 6 81 43 94 44 5 0 7 -2 5 -4z m-146 -93 c-8 -23 -44 -63 -55 -63 -15 0
44 79 59 80 1 0 0 -8 -4 -17z m-88 -143 c-4 -12 -9 -19 -12 -17 -3 3 -2 15 2
27 4 12 9 19 12 17 3 -3 2 -15 -2 -27z m515 -369 c0 -8 -91 -51 -107 -51 -4 1
17 14 47 30 66 34 60 32 60 21z"/>
<path d="M730 1099 c24 -14 28 -19 12 -15 -12 2 -20 0 -16 -5 3 -5 12 -9 20
-9 23 0 100 -56 129 -95 15 -19 30 -55 34 -82 6 -35 10 -43 16 -30 21 49 -77
188 -166 233 -58 29 -78 31 -29 3z"/>
<path d="M1000 1093 c-25 -32 -21 -77 11 -107 l21 -21 -12 23 c-20 39 -21 71
-5 102 19 37 13 38 -15 3z"/>
<path d="M1074 1107 c25 -18 26 -90 1 -118 l-20 -22 23 12 c44 23 51 110 11
131 -26 14 -36 12 -15 -3z"/>
<path d="M1130 1051 c0 -77 16 -105 21 -38 5 57 0 107 -12 107 -5 0 -9 -31 -9
-69z"/>
<path d="M1218 1088 c-5 -51 3 -119 13 -112 12 7 12 144 0 144 -6 0 -11 -15
-13 -32z"/>
<path d="M1337 1100 c-3 -11 -2 -22 3 -25 4 -2 13 -25 20 -50 7 -25 16 -48 21
-50 12 -8 22 15 11 28 -5 7 -17 36 -26 65 -10 28 -19 52 -21 52 -1 0 -5 -9 -8
-20z"/>
<path d="M1428 1109 c-7 -20 12 -123 23 -134 8 -7 9 12 4 60 -7 68 -18 100
-27 74z"/>
<path d="M1500 1070 c11 -28 20 -59 20 -70 0 -37 18 -29 22 9 2 22 0 37 -3 35
-4 -2 -14 14 -23 36 -9 22 -20 40 -26 40 -5 0 -1 -23 10 -50z"/>
<path d="M497 1043 c-3 -5 0 -19 8 -29 15 -20 18 -11 6 20 -4 11 -10 15 -14 9z"/>
<path d="M644 1036 c-10 -8 -15 -18 -11 -22 4 -4 15 0 24 9 22 21 12 31 -13
13z"/>
<path d="M738 1014 c-5 -4 -8 -16 -8 -28 0 -14 3 -17 11 -9 6 6 9 19 7 28 -1
9 -6 13 -10 9z"/>
<path d="M410 961 c0 -11 5 -23 10 -26 6 -3 10 3 10 14 0 11 -4 23 -10 26 -5
3 -10 -3 -10 -14z"/>
<path d="M0 810 c0 -117 2 -130 18 -130 15 0 17 11 14 122 -2 92 0 123 10 129
9 6 4 9 -14 9 l-28 0 0 -130z"/>
<path d="M110 913 c27 -24 33 -38 38 -81 6 -65 -1 -93 -33 -125 -20 -20 -22
-24 -8 -21 62 17 95 102 70 180 -9 27 -45 60 -76 69 -21 6 -20 4 9 -22z"/>
<path d="M570 932 c0 -4 11 -9 25 -10 14 -1 25 3 25 8 0 6 -11 10 -25 10 -14
0 -25 -4 -25 -8z"/>
<path d="M989 938 c-6 -15 -6 -80 0 -70 5 8 29 -20 74 -88 37 -55 74 -100 82
-100 21 0 15 27 -10 55 -11 12 -46 63 -78 114 -53 82 -65 97 -68 89z"/>
<path d="M1207 933 c-3 -5 -3 -53 -2 -108 3 -93 4 -101 30 -122 36 -31 51 -29
26 3 -18 23 -21 41 -21 130 0 84 -3 104 -14 104 -8 0 -17 -3 -19 -7z"/>
<path d="M1480 811 c0 -119 2 -131 18 -131 16 0 18 11 17 127 0 114 -2 128
-17 131 -16 3 -18 -8 -18 -127z"/>
<path d="M830 920 c0 -13 20 -13 40 0 12 8 9 10 -12 10 -16 0 -28 -4 -28 -10z"/>
<path d="M1382 900 c0 -19 2 -27 5 -17 2 9 2 25 0 35 -3 9 -5 1 -5 -18z"/>
<path d="M726 902 c-3 -5 1 -17 8 -27 7 -10 15 -14 19 -9 3 5 -1 17 -8 27 -7
10 -16 14 -19 9z"/>
<path d="M568 890 c-35 -11 -88 -68 -88 -96 0 -24 87 -104 113 -104 26 0 47
11 47 25 0 8 9 17 20 20 11 3 25 15 30 26 16 29 -10 96 -46 120 -32 21 -36 21
-76 9z m73 -17 c16 -10 29 -22 29 -27 0 -5 -8 -2 -17 6 -10 8 -27 20 -38 26
-11 6 -16 12 -12 12 5 0 22 -8 38 -17z m4 -29 c32 -34 32 -68 0 -99 -39 -40
-94 -31 -123 20 -6 11 -12 14 -12 7 0 -7 -4 -10 -10 -7 -15 9 -12 51 5 65 14
11 14 10 6 -14 -6 -14 -8 -26 -5 -26 3 0 10 13 15 29 19 53 86 67 124 25z m37
-76 c-8 -8 -9 -4 -5 13 4 13 8 18 11 10 2 -7 -1 -18 -6 -23z m-57 -58 c-3 -5
-18 -9 -33 -9 l-27 1 30 8 c17 4 31 8 33 9 2 0 0 -3 -3 -9z"/>
<path d="M338 884 c-8 -7 2 -44 12 -44 4 0 5 11 2 25 -5 27 -6 28 -14 19z"/>
<path d="M450 859 c0 -11 5 -17 10 -14 6 3 10 13 10 21 0 8 -4 14 -10 14 -5 0
-10 -9 -10 -21z"/>
<path d="M932 830 c0 -14 2 -19 5 -12 2 6 2 18 0 25 -3 6 -5 1 -5 -13z"/>
<path d="M815 809 c-9 -28 1 -36 14 -10 7 12 7 22 2 26 -5 3 -13 -4 -16 -16z"/>
<path d="M1381 814 c0 -11 3 -14 6 -6 3 7 2 16 -1 19 -3 4 -6 -2 -5 -13z"/>
<path d="M981 804 c0 -11 3 -14 6 -6 3 7 2 16 -1 19 -3 4 -6 -2 -5 -13z"/>
<path d="M1381 774 c0 -11 3 -14 6 -6 3 7 2 16 -1 19 -3 4 -6 -2 -5 -13z"/>
<path d="M321 746 c-8 -9 -11 -19 -7 -23 9 -9 29 13 24 27 -2 8 -8 7 -17 -4z"/>
<path d="M400 740 c-8 -5 -12 -12 -9 -15 8 -8 39 5 39 16 0 11 -11 11 -30 -1z"/>
<path d="M730 724 c0 -3 7 -12 15 -21 20 -19 32 -9 15 12 -12 15 -30 20 -30 9z"/>
<path d="M869 704 c-12 -14 -11 -16 5 -13 11 2 21 10 24 17 5 17 -13 15 -29
-4z"/>
<path d="M981 704 c0 -11 3 -14 6 -6 3 7 2 16 -1 19 -3 4 -6 -2 -5 -13z"/>
<path d="M495 687 c-4 -10 -5 -21 -1 -24 10 -10 18 4 13 24 -4 17 -4 17 -12 0z"/>
<path d="M251 679 c-1 -8 6 -24 15 -35 15 -19 15 -19 6 1 -5 11 -12 27 -15 35
-5 13 -6 13 -6 -1z"/>
<path d="M690 635 c0 -15 4 -24 10 -20 6 3 10 12 10 20 0 8 -4 17 -10 20 -6 4
-10 -5 -10 -20z"/>
<path d="M587 635 c-10 -7 -14 -16 -9 -19 5 -3 17 1 27 8 10 7 14 15 9 19 -5
3 -17 -1 -27 -8z"/>
<path d="M385 620 c-7 -12 27 -22 37 -12 6 6 1 12 -11 15 -12 3 -23 2 -26 -3z"/>
<path d="M805 610 c-3 -5 3 -10 14 -10 11 0 23 5 26 10 3 6 -3 10 -14 10 -11
0 -23 -4 -26 -10z"/>
<path d="M360 556 c0 -2 8 -10 18 -17 15 -13 16 -12 3 4 -13 16 -21 21 -21 13z"/>
<path d="M494 544 c3 -9 6 -18 6 -20 0 -2 7 -4 15 -4 13 0 13 3 3 20 -15 24
-33 27 -24 4z"/>
<path d="M640 525 c7 -8 20 -15 29 -15 13 1 13 3 -3 15 -26 19 -42 19 -26 0z"/>
</g>
</svg>
